<svg viewBox="0 0 48 48" xmlns="http://www.w3.org/2000/svg"><circle cx="24" cy="24" fill="#E3411F" r="24"/><g fill="#FFF"><path d="M24.8 25.8c-.7-.5-2-1.7-2-2.3 0-.8.2-1.2 1.4-2.2 1.2-1 2.1-2.3 2.1-3.9 0-1.9-.8-3.7-2.4-4.4h2.4l1.7-1.2h-7.5c-3.4 0-6.6 2.6-6.6 5.5 0 3 2.3 5.5 5.7 5.5h.7c-.2.4-.4.9-.4 1.4 0 .8.5 1.5 1 2.1h-1.3c-4.2 0-7.4 2.7-7.4 5.4s3.5 4.4 7.7 4.4c4.8 0 7.4-2.7 7.4-5.4.1-2.1-.5-3.5-2.5-4.9zm-4.1-3.7c-1.9-.1-3.8-2.2-4.1-4.7-.3-2.6 1-4.5 2.9-4.4 1.9.1 3.8 2.1 4.1 4.7.4 2.4-.9 4.4-2.9 4.4zM20 35c-2.9 0-5-1.8-5-4s2.6-4 5.5-3.9c.7 0 1.3.1 1.9.3 1.6 1.1 2.7 1.7 3 3 .1.3.1.5.1.8 0 2-1.5 3.8-5.5 3.8z"/><path d="M32.8 22.3v-2.9h-2.4v2.9h-2.9v2.3h2.9v3h2.4v-3h2.9v-2.3z"/></g></svg>