<svg height="24" width="24" xmlns="http://www.w3.org/2000/svg"><path d="M12 3C9.239 3 7 5.6 7 9v1c0 .5.373 1 .833 1 .46 0 .834-.5.834-1V9c0-2.4 1.492-4.3 3.333-4.3s3.333 1.9 3.333 4.3v1c0 .5.373 1 .834 1 .46 0 .833-.5.833-1V9c0-3.4-2.239-6-5-6z" fill="#7f8c8d"/><path d="M6 9c-1.105 0-2 .9-2 2v7c0 1.1.895 2 2 2h12c1.105 0 2-.9 2-2v-7c0-1.1-.895-2-2-2H6z" fill="#f1c40f"/><path d="M12 1.5c-3.314 0-6 2.7-6 6v1c0 .6.448 1 1 1s1-.4 1-1v-1c0-2.3 1.79-4.2 4-4.2 2.209 0 4 1.9 4 4.2v1c0 .6.448 1 1 1s1-.4 1-1v-1c0-3.3-2.686-6-6-6z" fill="#bdc3c7"/><path d="M6 11c-1.105 0-2 .9-2 2v7c0 1.1.895 2 2 2h12c1.105 0 2-.9 2-2v-7c0-1.1-.895-2-2-2H6z" fill="#f39c12"/><path d="M6.327 9c-.34 0-.657.1-.938.2.222.9 1.006 1.5 1.938 1.5 1.02 0 1.845-.8 1.969-1.7H6.327zm11.465-.1c.34 0 .657.1.937.3-.222.8-1.005 1.5-1.937 1.5-1.02 0-1.845-.8-1.969-1.8h2.969z" fill="#7f8c8d"/><path d="M12 2C8.686 2 6 4.6 6 8v1c0 .5.448 1 1 1s1-.5 1-1V8c0-2.4 1.79-4.3 4-4.3 2.209 0 4 1.9 4 4.3v1c0 .5.448 1 1 1s1-.5 1-1V8c0-3.4-2.686-6-6-6z" fill="#95a5a6"/><path d="M6 13h12v1H6zm0 2h12v1H6zm0 2h12v1H6zm0 2h12v1H6z" fill="#e67e22"/></svg>